<svg xmlns="http://www.w3.org/2000/svg" width="192" height="192" viewBox="0 0 192 192">
  <rect width="192" height="192" rx="42" fill="#2563eb"/>
  <path d="M126 61c-7-9-18-14-31-14-19 0-34 11-34 27 0 17 16 23 31 27 13 4 22 7 22 16 0 7-7 12-18 12-12 0-22-5-29-14l-17 16c10 13 25 20 45 20 22 0 37-12 37-30 0-19-17-25-33-29-13-4-20-7-20-14 0-6 6-10 16-10 9 0 16 3 22 10l9-13Z" fill="#fff"/>
  <path d="M132 61c-7-11-20-18-36-18-22 0-39 13-39 31 0 18 16 26 33 31" fill="none" stroke="#14b8a6" stroke-width="8" stroke-linecap="round"/>
</svg>
