<svg xmlns="http://www.w3.org/2000/svg" width="512" height="512" viewBox="0 0 512 512">
  <rect width="512" height="512" rx="112" fill="#2563eb"/>
  <path d="M336 162c-19-24-49-38-83-38-52 0-91 29-91 73 0 45 42 61 82 73 34 10 58 19 58 43 0 20-20 33-49 33-32 0-58-13-77-38l-45 43c27 34 67 53 121 53 59 0 99-33 99-81 0-50-46-67-89-80-34-10-54-18-54-38 0-17 17-28 43-28 24 0 43 9 58 27l27-42Z" fill="#fff"/>
  <path d="M352 163c-20-31-54-49-96-49-59 0-104 34-104 83 0 50 43 70 88 83" fill="none" stroke="#14b8a6" stroke-width="22" stroke-linecap="round"/>
</svg>
